# This file uses centimeters as units for non-parametric coordinates.

mtllib ExtrudedRHTriangle.mtl
g default
v 0.498656 0.000000 0.500000
v 0.498656 1.000000 0.000000
v -0.501649 0.000000 0.500000
v -0.501649 1.000000 0.000000
v 0.498656 0.000000 -0.001587
v -0.501649 0.000000 -0.001587
vt 0.375000 0.000000
vt 0.250000 0.250000
vt 0.375000 0.000000
vt 0.250000 0.250000
vt 0.375000 0.000000
vt 0.250000 0.250000
vt 0.249603 0.000000
vt 0.249603 0.000000
vt 0.249603 0.000000
vn -1.000000 0.000000 0.000001
vn -1.000000 0.000000 0.000001
vn -1.000000 0.000000 0.000001
vn 0.000000 0.447214 0.894427
vn 0.000000 0.447214 0.894427
vn 0.000000 0.447214 0.894427
vn 0.000000 0.447214 0.894427
vn 0.000000 -1.000000 0.000000
vn 0.000000 -1.000000 0.000000
vn 0.000000 -1.000000 0.000000
vn 0.000000 -1.000000 0.000000
vn 1.000000 -0.000000 -0.000001
vn 1.000000 -0.000000 -0.000001
vn 1.000000 -0.000000 -0.000001
vn 0.000000 0.001587 -0.999999
vn 0.000000 0.001587 -0.999999
vn 0.000000 0.001587 -0.999999
vn 0.000000 0.001587 -0.999999
s off
g ExtrudedRHTriangle
usemtl initialShadingGroup
f 4/6/1 6/9/2 3/5/3
f 1/1/4 2/2/5 4/6/6 3/5/7
f 5/7/8 1/1/9 3/5/10 6/9/11
f 5/8/12 2/4/13 1/3/14
f 4/6/15 2/4/16 5/7/17 6/9/18
