# This file uses centimeters as units for non-parametric coordinates.

mtllib Pyramid2.mtl
g Pyramid_default1
v 0.000000 0.001392 -0.707107
v -0.707107 0.001392 0.000000
v 0.000000 0.001392 0.707107
v 0.707107 0.001392 0.000000
v 0.000000 0.708499 0.000000
g default
v -0.353554 0.354946 0.000000
v 0.000000 0.354946 -0.353554
v 0.000000 0.354946 0.353554
v 0.353554 0.354946 0.000000
v 0.000000 0.178169 -0.530330
v -0.530330 0.178169 0.000000
v 0.000000 0.178169 0.530330
v 0.530330 0.178169 0.000000
v -0.176777 0.531722 0.000000
v 0.000000 0.531722 -0.176777
v 0.000000 0.531722 0.176777
v 0.176777 0.531722 0.000000
vt 0.500000 0.000000
vt 0.250000 0.250000
vt 0.500000 0.500000
vt 0.750000 0.250000
vt 0.250000 0.500000
vt 0.375000 0.500000
vt 0.500000 0.500000
vt 0.625000 0.500000
vt 0.750000 0.500000
vt 0.500000 1.000000
vt 0.437500 0.750000
vt 0.375000 0.750000
vt 0.500000 0.750000
vt 0.562500 0.750000
vt 0.625000 0.750000
vt 0.312500 0.625000
vt 0.406250 0.625000
vt 0.500000 0.625000
vt 0.593750 0.625000
vt 0.468750 0.875000
vt 0.437500 0.875000
vt 0.500000 0.875000
vt 0.531250 0.875000
vt 0.687500 0.625000
vt 0.562500 0.875000
vn 0.000000 -1.000000 0.000000
vn 0.000000 -1.000000 0.000000
vn 0.000000 -1.000000 0.000000
vn 0.000000 -1.000000 0.000000
vn 0.000000 -1.000000 0.000000
vn 0.000000 -1.000000 0.000000
vn -0.577350 0.577350 -0.577350
vn -0.577350 0.577350 -0.577350
vn -0.577350 0.577350 -0.577350
vn -0.577350 0.577350 0.577350
vn -0.577350 0.577350 0.577350
vn -0.577350 0.577350 0.577350
vn 0.577350 0.577350 0.577350
vn 0.577350 0.577350 0.577350
vn 0.577350 0.577350 0.577350
vn 0.577350 0.577350 -0.577350
vn 0.577350 0.577350 -0.577350
vn 0.577350 0.577350 -0.577350
vn -0.577350 0.577350 0.577350
vn -0.577350 0.577350 0.577350
vn -0.577350 0.577350 0.577350
vn -0.577350 0.577350 0.577350
vn 0.577350 0.577350 0.577350
vn 0.577350 0.577350 0.577350
vn 0.577350 0.577350 0.577350
vn 0.577350 0.577350 0.577350
vn 0.577350 0.577350 -0.577350
vn 0.577350 0.577350 -0.577350
vn 0.577350 0.577350 -0.577350
vn 0.577350 0.577350 -0.577350
vn -0.577350 0.577350 -0.577350
vn -0.577350 0.577350 -0.577350
vn -0.577350 0.577350 -0.577350
vn -0.577350 0.577350 -0.577350
vn -0.577350 0.577350 -0.577350
vn -0.577350 0.577350 -0.577350
vn 0.577350 0.577350 -0.577350
vn 0.577350 0.577350 -0.577350
vn 0.577350 0.577350 0.577350
vn 0.577350 0.577350 0.577350
vn -0.577350 0.577350 0.577350
vn -0.577350 0.577350 0.577350
vn -0.577350 0.577350 -0.577350
vn -0.577350 0.577350 -0.577350
vn -0.577350 0.577350 -0.577350
vn -0.577350 0.577350 -0.577350
vn -0.577350 0.577350 0.577350
vn -0.577350 0.577350 0.577350
vn -0.577350 0.577350 0.577350
vn -0.577350 0.577350 0.577350
vn 0.577350 0.577350 0.577350
vn 0.577350 0.577350 0.577350
vn 0.577350 0.577350 0.577350
vn 0.577350 0.577350 0.577350
vn 0.577350 0.577350 -0.577350
vn 0.577350 0.577350 -0.577350
vn 0.577350 0.577350 -0.577350
vn 0.577350 0.577350 -0.577350
s off
g Pyramid_Pyramid Pyramid_polySurface1
usemtl Pyramid_PyramidSG
f 2/2/1 1/1/2 4/4/3
f 3/3/4 2/2/5 4/4/6
s 1
f 14/20/7 5/10/8 15/21/9
s 2
f 14/20/10 16/22/11 5/10/12
s 3
f 17/23/13 5/10/14 16/22/15
s 4
f 15/25/16 5/10/17 17/23/18
s 5
f 12/18/19 8/13/20 11/17/21
f 11/17/21 8/13/20 6/11/22
s 6
f 9/14/23 8/13/24 13/19/25
f 13/19/25 8/13/24 12/18/26
s 7
f 7/15/27 9/14/28 10/24/29
f 10/24/29 9/14/28 13/19/30
s 8
f 6/11/31 7/12/32 11/17/33
f 11/17/33 7/12/32 10/16/34
s 1
f 14/20/7 15/21/9 6/11/35
f 6/11/35 15/21/9 7/12/36
s 4
f 15/25/16 17/23/18 7/15/37
f 7/15/37 17/23/18 9/14/38
s 3
f 17/23/13 16/22/15 9/14/39
f 9/14/39 16/22/15 8/13/40
s 2
f 6/11/41 8/13/42 14/20/10
f 14/20/10 8/13/42 16/22/11
s 9
f 11/17/43 10/16/44 2/6/45
f 2/6/45 10/16/44 1/5/46
s 10
f 12/18/47 11/17/48 3/7/49
f 3/7/49 11/17/48 2/6/50
s 11
f 13/19/51 12/18/52 4/8/53
f 4/8/53 12/18/52 3/7/54
s 12
f 10/24/55 13/19/56 1/9/57
f 1/9/57 13/19/56 4/8/58
